<?xml version="1.0" encoding="UTF-8"?>
<svg version="1.1" xmlns="http://www.w3.org/2000/svg" width="740" height="740">
<path d="M0 0 C244.2 0 488.4 0 740 0 C740 244.2 740 488.4 740 740 C495.8 740 251.6 740 0 740 C0 495.8 0 251.6 0 0 Z M222 168 C222 178.89 222 189.78 222 201 C286.845 201.495 286.845 201.495 353 202 C353.33 215.2 353.66 228.4 354 242 C348.66972656 241.98839844 343.33945312 241.97679687 337.84765625 241.96484375 C334.4798165 241.95973692 331.11198149 241.95492314 327.74414062 241.95117188 C322.39330052 241.94518371 317.04247745 241.93808412 311.69165039 241.92456055 C307.37988027 241.91373071 303.06812841 241.90772296 298.75634575 241.90512276 C297.10763702 241.90326868 295.45892934 241.8996484 293.81022835 241.89426994 C291.50896128 241.88705822 289.2077706 241.88600911 286.90649414 241.88647461 C285.5941127 241.884254 284.28173126 241.88203339 282.92958069 241.87974548 C280.11004121 241.66412191 280.11004121 241.66412191 279 243 C278.90017435 245.32536856 278.8655699 247.62108821 278.87301636 249.94702148 C278.87145637 250.68220977 278.86989638 251.41739805 278.86828911 252.17486477 C278.86427644 254.65696103 278.86746978 257.13899695 278.87060547 259.62109375 C278.86925155 261.39299557 278.86747166 263.1648971 278.86529541 264.9367981 C278.86072001 269.76310536 278.86251107 274.58939135 278.8656745 279.41569901 C278.86819755 284.45478627 278.86586071 289.49387165 278.86428833 294.53295898 C278.86246647 302.9969109 278.86487337 311.4608541 278.86962891 319.92480469 C278.87507156 329.72515912 278.87330891 339.52549275 278.8678025 349.32584667 C278.86327183 357.72411624 278.8626206 366.12237952 278.86524117 374.52064991 C278.8668042 379.54362644 278.86699701 384.56659318 278.86370468 389.58956909 C278.86082663 394.31069798 278.86280044 399.03179991 278.86859894 403.75292587 C278.86992689 405.490843 278.86953182 407.22876237 278.86733627 408.96667862 C278.86462615 411.32880973 278.86800418 413.69085308 278.87301636 416.05297852 C278.87078564 416.74975425 278.86855491 417.44652998 278.86625659 418.16442013 C278.61178606 421.35998828 278.61178606 421.35998828 280 424 C281.77991924 424.09370624 283.56356739 424.11744271 285.34594727 424.11352539 C286.4870546 424.11344986 287.62816193 424.11337433 288.80384827 424.11329651 C290.66631447 424.10555458 290.66631447 424.10555458 292.56640625 424.09765625 C293.83016586 424.0962413 295.09392548 424.09482635 296.39598083 424.09336853 C299.76124889 424.08870582 303.1264499 424.0797148 306.49169922 424.06866455 C309.92349659 424.05844846 313.35530108 424.05381578 316.78710938 424.04882812 C323.52477754 424.03862263 330.26232771 424.01905091 337 424 C337 413.11 337 402.22 337 391 C329.08 390.67 321.16 390.34 313 390 C312.67 352.05 312.34 314.1 312 275 C349.95 275.33 387.9 275.66 427 276 C427.33 294.81 427.66 313.62 428 333 C438.89 333 449.78 333 461 333 C461.02254989 321.28272869 461.04091443 309.56547169 461.05181217 297.84818363 C461.05704128 292.40797688 461.06413943 286.96778569 461.07543945 281.52758789 C461.08626735 276.28214298 461.09227662 271.03671308 461.09487724 265.79125786 C461.09673167 263.78529054 461.10035262 261.77932408 461.10573006 259.77336311 C461.11293919 256.97397176 461.113991 254.17464321 461.11352539 251.37524414 C461.11712067 250.53727295 461.12071594 249.69930176 461.12442017 248.8359375 C461.47678705 245.1149657 461.47678705 245.1149657 460 242 C457.69946165 241.90556665 455.39597827 241.88257872 453.09350586 241.88647461 C452.01064049 241.88625557 452.01064049 241.88625557 450.90589905 241.8860321 C448.50885053 241.88673131 446.11187877 241.89452405 443.71484375 241.90234375 C442.05717511 241.9042079 440.39950593 241.90563182 438.74183655 241.90663147 C434.37045786 241.91045688 429.99911219 241.92028735 425.62774658 241.93133545 C420.38732333 241.94334359 415.14688906 241.9479517 409.90645599 241.95378876 C401.93761434 241.9634991 393.96884518 241.98265548 386 242 C386.33 228.47 386.66 214.94 387 201 C430.23 201 473.46 201 518 201 C518 190.11 518 179.22 518 168 C420.32 168 322.64 168 222 168 Z M354 292 C352.30977126 295.38045747 352.88914227 299.21753811 352.91770935 302.93423462 C352.92093848 303.87107696 352.92416761 304.8079193 352.92749459 305.7731508 C352.93961753 308.93165264 352.95898037 312.09006955 352.97827148 315.24853516 C352.98840921 317.5049572 352.99810342 319.76138128 353.00738525 322.01780701 C353.033917 328.16008252 353.06668607 334.30231108 353.10053515 340.44455004 C353.13482806 346.85741568 353.16343997 353.27030654 353.19264221 359.68319702 C353.24245153 370.45222779 353.29578632 381.22123451 353.35180664 391.99023438 C353.40950494 403.08364818 353.46508992 414.17706924 353.51782227 425.27050781 C353.52269684 426.29575262 353.52269684 426.29575262 353.5276699 427.34170945 C353.54395928 430.77052033 353.56020701 434.19933141 353.57643402 437.6281426 C353.71116353 466.08546177 353.85347915 494.5427393 354 523 C364.89 522.67 375.78 522.34 387 522 C387 446.1 387 370.2 387 292 C376.11 292 365.22 292 354 292 Z M403 391 C403 401.89 403 412.78 403 424 C411.25 424 419.5 424 428 424 C428 461.95 428 499.9 428 539 C389.72 539 351.44 539 312 539 C312 519.86 312 500.72 312 481 C306.740625 480.979375 301.48125 480.95875 296.0625 480.9375 C293.57021851 480.92384399 293.57021851 480.92384399 291.02758789 480.90991211 C289.08227173 480.90616577 289.08227173 480.90616577 287.09765625 480.90234375 C286.06892395 480.8946698 286.06892395 480.8946698 285.01940918 480.88684082 C283.34584769 480.88652946 281.6724042 480.93777163 280 481 C278.18003094 482.81996906 278.87359409 485.33889644 278.86447144 487.7613678 C278.86649567 488.58841721 278.8685199 489.41546661 278.87060547 490.26757812 C278.86885315 491.13418564 278.86710083 492.00079315 278.86529541 492.8936615 C278.86087575 495.77287773 278.86381528 498.65203309 278.8671875 501.53125 C278.86651449 503.52282727 278.8655445 505.51440446 278.86428833 507.50598145 C278.8628112 511.68579895 278.86496639 515.86559513 278.86962891 520.04541016 C278.8753262 525.41602526 278.87204727 530.7865904 278.86605644 536.15720367 C278.86245123 540.2714272 278.86358923 544.38563879 278.86618423 548.49986267 C278.86685361 550.48070786 278.8660247 552.46155412 278.86370468 554.44239807 C278.86117881 557.20576876 278.86501782 559.96905734 278.87060547 562.73242188 C278.86858124 563.55947128 278.86655701 564.38652069 278.86447144 565.2386322 C278.52681251 568.92056725 278.52681251 568.92056725 280 572 C282.34026481 572.09762197 284.65098985 572.12997818 286.99171448 572.12025452 C288.09899147 572.12153854 288.09899147 572.12153854 289.2286377 572.12284851 C291.72870236 572.12451363 294.22870115 572.11896406 296.72875977 572.11352539 C298.54110938 572.1132193 300.35345912 572.11335213 302.16580868 572.11389065 C307.0367246 572.1141172 311.90761615 572.10830466 316.77852631 572.10128021 C321.34254537 572.09560204 325.90655839 572.09531801 330.47058105 572.09460449 C343.83455729 572.08934884 357.19852895 572.07538781 370.5625 572.0625 C415.3290625 572.0315625 415.3290625 572.0315625 461 572 C461 512.27 461 452.54 461 391 C441.86 391 422.72 391 403 391 Z " fill="#000000" transform="translate(0,0)"/>
</svg>
